<svg xmlns="http://www.w3.org/2000/svg" width="45" height="45" viewBox="0 0 45 45">
  <path d="M22.5 9c-2.21 0-4 1.79-4 4 0 .89.29 1.71.78 2.38C17.33 16.5 16 18.59 16 21c0 2.03.94 3.84 2.41 5.03C15.41 27.09 13 29.35 13 32v1h19v-1c0-2.65-2.41-4.91-5.41-5.97C28.06 24.84 29 23.03 29 21c0-2.41-1.33-4.5-3.28-5.62.49-.67.78-1.49.78-2.38 0-2.21-1.79-4-4-4z" fill="#000" stroke="#000" stroke-linecap="round" stroke-width="1.5"/>
  <path d="M11.5 37c5.5 3.5 15.5 3.5 21 0v-7s9-4.5 6-10.5c-4-6.5-13.5-3.5-16 4V17s-3.5-7-11-3.5c-3 2.5.5 12.5 6 10v6.5z" fill="#000" stroke="#000" stroke-linecap="round" stroke-width="1.5"/>
</svg>
