<svg xmlns="http://www.w3.org/2000/svg" width="45" height="45"><g fill="#000" fill-rule="evenodd" stroke="#000" stroke-linecap="round" stroke-linejoin="round" stroke-width="1.5"><path d="M8 12a2 2 0 1 1-4 0 2 2 0 0 1 4 0zm10-3a2 2 0 1 1-4 0 2 2 0 0 1 4 0zm10 0a2 2 0 1 1-4 0 2 2 0 0 1 4 0zm10 3a2 2 0 1 1-4 0 2 2 0 0 1 4 0zM24.5 7.5a2 2 0 1 1-4 0 2 2 0 0 1 4 0z"/><path d="M9 26c8.5-1.5 21-1.5 27 0l2-12-7 11V11l-5.5 13.5-3-15-3 15-5.5-13.5V25L7 14l2 12z" stroke-linecap="butt"/><path d="M9 26c0 2 1.5 2 2.5 4 2.5 4 2.5 4 2.5 4h17s0 0 2.5-4c1-2 2.5-2 2.5-4H9z"/><path d="M11.5 30c3.5-1 18.5-1 22 0m-23.5 3.5c3.5-1 20.5-1 24 0m-25 3.5c3.5-1 22.5-1 26 0" stroke="#fff"/></g></svg>