<svg xmlns="http://www.w3.org/2000/svg" width="45" height="45" viewBox="0 0 45 45">
  <g fill="none" stroke="#000" stroke-linecap="round" stroke-linejoin="round" stroke-width="1.5">
    <path stroke-linejoin="miter" d="M22.5 11.63V6M20 8h5"/>
    <path fill="#fff" stroke-linejoin="miter" d="M22.5 25s4.5-7.5 3-10.5c0 0-1-2.5-3-2.5s-3 2.5-3 2.5c-1.5 3 3 10.5 3 10.5"/>
    <path fill="#fff" stroke-linecap="butt" stroke-linejoin="miter" d="M12.5 37c5.5 3.5 14.5 3.5 20 0v-7s9-4.5 6-10.5c-4-6.5-13.5-3.5-16 4V17s-3.5-7-11-3.5c-3 2.5.5 12.5 5 10z"/>
    <path d="M12.5 30c5.5-3 14.5-3 20 0M12.5 33.5c5.5-3 14.5-3 20 0M12.5 37c5.5-3 14.5-3 20 0"/>
  </g>
</svg>
