<svg xmlns="http://www.w3.org/2000/svg" width="45" height="45"><g fill="none" fill-rule="evenodd" stroke="#000" stroke-linecap="round" stroke-linejoin="round" stroke-width="1.5"><path d="M22.5 11.63V6M20 8h5" stroke="#000" stroke-linejoin="miter"/><path d="M22.5 25s4.5-7.5 4.5-11c0-2.5-2-4.5-4.5-4.5s-4.5 2-4.5 4.5c0 3.5 4.5 11 4.5 11" fill="#fff" stroke-linecap="butt"/><path d="M11.5 37c5.5 3.5 15.5 3.5 21 0v-7s9-4.5 6-10.5c-4-1-1-4-1-4h-30s3 3-1 4c-3 6 6 10.5 6 10.5v7" fill="#fff"/><path d="M11.5 30c5.5-3 15.5-3 21 0m-21 3.5c5.5-3 15.5-3 21 0m-21 3.5c5.5-3 15.5-3 21 0"/></g></svg>