<svg xmlns="http://www.w3.org/2000/svg" width="45" height="45" viewBox="0 0 45 45">
  <g fill="none" stroke="#000" stroke-linecap="round" stroke-linejoin="round" stroke-width="1.5">
    <path fill="#fff" d="M22 10c10.5 1 16.5 8 16 29H15c0-9 10-6.5 8-21"/>
    <path fill="#fff" d="M24 18c.38 5.12-5.5 7.69-8 9.56l3 7.44h-7l-3-7.44C6.5 24.88 4.67 18 4 15c-.5-4 3.5-4.5 6-3 2.5-4 6-8 10-8 0 0 .5-2 2-2.5 1-.5 3 .5 3 2.5z"/>
    <path fill="#000" d="M9.5 25.5a.5.5 0 1 1-1 0 .5.5 0 0 1 1 0zm5.433-9.75a.5 1.5 30 1 1-.866-.5.5 1.5 30 0 1 .866.5z"/>
  </g>
</svg>
