<svg xmlns="http://www.w3.org/2000/svg" width="45" height="45" viewBox="0 0 45 45">
  <g fill="#fff" stroke="#000" stroke-linecap="round" stroke-linejoin="round" stroke-width="1.5">
    <circle cx="6" cy="12" r="2.75"/>
    <circle cx="14" cy="9" r="2.75"/>
    <circle cx="22.5" cy="8" r="2.75"/>
    <circle cx="31" cy="9" r="2.75"/>
    <circle cx="39" cy="12" r="2.75"/>
    <path stroke-linecap="butt" d="M9 26c8.5-1.5 21-1.5 27 0l2-12-7 11V11l-5.5 13.5-3-15-3 15L14 11v14L7 14z"/>
    <path d="M9 26c0 2 1.5 2 2.5 4 1 1.5 1 1 .5 3.5-1.5 1-1.5 2.5-1.5 2.5-1.5 1.5.5 2.5.5 2.5 6.5 1 16.5 1 23 0 0 0 1.5-1 0-2.5 0 0-1-1.5-1.5-2.5-.5-2.5-.5-2 .5-3.5 1-2 2.5-2 2.5-4-8.5-1.5-18.5-1.5-27 0z"/>
    <path stroke-linecap="butt" d="M11.5 30c3.5-1 18.5-1 22 0M12 33.5c4-1.5 17-1.5 21 0M11 37c4-1.5 19-1.5 23 0"/>
  </g>
</svg>
